<?xml version="1.0" encoding="UTF-8" standalone="no"?>
<!-- Created with Inkscape (http://www.inkscape.org/) -->

<svg
   xmlns:dc="http://purl.org/dc/elements/1.1/"
   xmlns:cc="http://creativecommons.org/ns#"
   xmlns:rdf="http://www.w3.org/1999/02/22-rdf-syntax-ns#"
   xmlns:svg="http://www.w3.org/2000/svg"
   xmlns="http://www.w3.org/2000/svg"
   xmlns:sodipodi="http://sodipodi.sourceforge.net/DTD/sodipodi-0.dtd"
   xmlns:inkscape="http://www.inkscape.org/namespaces/inkscape"
   width="24000.701"
   height="6000.5195"
   viewBox="0 0 6350.1854 1587.6375"
   version="1.1"
   id="svg5051"
   sodipodi:docname="drawing3.svg"
   inkscape:version="0.92.1 r15371">
  <defs
     id="defs5045" />
  <sodipodi:namedview
     id="base"
     pagecolor="#ffffff"
     bordercolor="#666666"
     borderopacity="1.0"
     inkscape:pageopacity="0.0"
     inkscape:pageshadow="2"
     inkscape:zoom="0.028284271"
     inkscape:cx="16123.226"
     inkscape:cy="6350.2173"
     inkscape:document-units="mm"
     inkscape:current-layer="layer1"
     showgrid="false"
     units="px"
     inkscape:window-width="1920"
     inkscape:window-height="1017"
     inkscape:window-x="-8"
     inkscape:window-y="-8"
     inkscape:window-maximized="1" />
  <metadata
     id="metadata5048">
    <rdf:RDF>
      <cc:Work
         rdf:about="">
        <dc:format>image/svg+xml</dc:format>
        <dc:type
           rdf:resource="http://purl.org/dc/dcmitype/StillImage" />
        <dc:title></dc:title>
      </cc:Work>
    </rdf:RDF>
  </metadata>
  <g
     inkscape:label="Layer 1"
     inkscape:groupmode="layer"
     id="layer1"
     transform="translate(0,1290.6375)"
     style="display:inline">
    <path
       style="font-style:normal;font-weight:normal;font-size:10.58333302px;line-height:1.25;font-family:sans-serif;letter-spacing:0px;word-spacing:0px;fill:#000000;fill-opacity:1;stroke:none;stroke-width:1.9610368"
       d="m 962.09894,-4723.5878 c -92.5489,-0.883 -187.1939,64.0648 -209.1179,160.6372 -18.5701,80.2327 -11.7424,171.2286 35.1881,239.8654 31.1324,46.7785 84.38,70.8368 136.782,79.4233 72.4687,11.8587 146.89696,-5.258 212.86986,-36.9392 0,-62.5415 0,-125.0833 0,-187.6252 -53.5133,0 -107.0256,0 -160.53886,0 -6.6646,32.3851 32.30066,33.2144 52.75896,28.7411 23.0605,-0.9929 53.9563,-11.8596 71.4728,9.0345 11.999,28.8998 -0.073,60.9943 0.8768,91.1744 2.2469,19.014 8.1231,46.0157 -15.329,53.5384 -21.7572,8.5779 -45.2573,10.7271 -67.6867,16.7741 -71.39006,12.354 -153.81256,-7.6504 -199.06466,-70.3339 -31.7916,-47.9555 -42.8319,-108.4805 -39.7421,-166.0428 3.7206,-67.0944 34.9334,-136.9981 93.8311,-169.1301 81.4534,-43.0548 182.17926,-23.3686 255.78216,28.1221 16.7564,11.1637 12.8819,-34.2376 -2.1701,-40.7808 -23.3659,-17.0087 -52.7589,-20.77 -79.6713,-28.5077 -28.3298,-6.4927 -57.31806,-8.1689 -86.24116,-7.9508 z"
       id="text5781"
       inkscape:connector-curvature="0" />
    <path
       style="font-style:normal;font-weight:normal;font-size:10.58333302px;line-height:1.25;font-family:sans-serif;letter-spacing:0px;word-spacing:0px;fill:#000000;fill-opacity:1;stroke:none;stroke-width:1.9610368"
       d="m 1418.601,-4742.4656 c -21.132,4.2953 -43.8263,-6.4812 -64.0357,3.1509 -13.642,19.1945 0.747,46.9204 -3.9993,69.9013 0.4569,151.2301 -2.3259,302.493 1.6116,453.694 27.1142,-3.3707 12.8579,-38.2443 13.4186,-56.8999 1.9959,-41.9994 0.2393,-84.3637 0.961,-126.5097 0,-17.9434 0.073,-35.8874 -0.073,-53.8314 51.5353,8.986 106.6499,-12.6058 155.7946,11.8938 62.9985,73.7087 117.768,155.0384 185.6854,224.1341 28.9933,1.9002 -7.6141,-26.4512 -15.2434,-35.546 -42.2719,-52.792 -86.3695,-104.4625 -128.9004,-157.2301 -14.5631,-14.9091 -33.7687,-45.7497 -42.9029,-50.0172 -51.1147,8.3181 -102.9982,1.3414 -154.4333,4.2538 0,-93.7504 0,-187.5006 0,-281.2508 67.5925,6.4206 140.3648,-5.6618 202.4917,29.4537 33.6902,17.7599 58.9956,53.0768 60.5607,93.1284 3.3588,56.7762 -30.5426,112.7365 -79.4241,136.7777 51.6571,-5.7555 87.8548,-56.6473 93.8088,-107.9102 6.1866,-45.3126 -5.2193,-95.3226 -35.5181,-128.9756 -56.1845,-38.6123 -126.6548,-25.4318 -189.8355,-28.2168 z"
       id="text5792"
       inkscape:connector-curvature="0" />
    <path
       style="font-style:normal;font-weight:normal;font-size:10.58333302px;line-height:1.25;font-family:sans-serif;letter-spacing:0px;word-spacing:0px;fill:#000000;fill-opacity:1;stroke:none;stroke-width:1.9610368"
       d="m 1985.7985,-4767.8952 c -34.6376,19.4361 -31.6023,65.3835 -43.436,99.0803 -18.6333,39.7198 -30.0516,82.851 -45.6808,124.0402 -40.5929,114.995 -82.0852,229.7317 -117.1652,346.7334 38.4685,-11.9828 68.1517,-49.6009 71.2109,-91.5264 12.0782,-30.742 12.612,-71.2495 41.8397,-90.9958 21.7478,-10.6648 46.121,0 69.075,-1.4015 60.9307,2.5578 121.9079,-1.7164 182.8415,0.6339 23.1141,54.3229 27.6668,118.2657 65.8002,164.8274 37.1849,10.6284 33.2225,-41.8381 16.8266,-61.1652 -58.7961,-163.75 -114.6251,-328.6379 -172.424,-492.7712 -25.7107,-17.4585 -50.7731,18.5696 -30.0472,40.8771 36.2629,103.6421 70.9875,207.8607 106.8262,311.6628 -79.1065,0 -158.213,0 -237.3193,0 41.5517,-122.7921 86.2164,-244.476 123.9363,-368.6495 -10.7617,6.2177 -21.5227,12.436 -32.2839,18.6545 z"
       id="text5805"
       inkscape:connector-curvature="0" />
    <path
       style="font-style:normal;font-weight:normal;font-size:10.58333302px;line-height:1.25;font-family:sans-serif;letter-spacing:0px;word-spacing:0px;fill:#000000;fill-opacity:1;stroke:none;stroke-width:1.9610368"
       d="m 2635.2997,-4851.6407 c -37.6824,4.4907 -51.6363,46.4872 -58.834,79.6402 -10.4195,40.0516 -27.3499,77.8074 -39.431,117.3781 -49.7192,145.7046 -99.7539,291.2919 -148.9988,437.1723 -13.795,-60.315 -42.6019,-115.3754 -58.7679,-174.9454 -51.8219,-151.7991 -103.6247,-303.6056 -155.461,-455.3991 -29.4055,-18.3234 -73.6676,12.873 -48.0968,46.8517 76.6325,197.9136 138.6134,401.5638 213.482,600.1797 15.0185,9.5408 46.398,-4.7145 46.2333,-7.0327 10.2731,27.2561 57.8281,9.5682 59.4353,-18.207 13.3308,-39.7864 23.2839,-80.8323 40.1185,-119.2539 58.5569,-168.4402 118.9152,-336.2154 174.6711,-505.703 -8.1181,-0.1819 -16.232,-0.5832 -24.3507,-0.6818 z"
       id="text5817"
       inkscape:connector-curvature="0" />
    <path
       style="font-style:normal;font-weight:normal;font-size:10.58333302px;line-height:1.25;font-family:sans-serif;letter-spacing:0px;word-spacing:0px;fill:#000000;fill-opacity:1;stroke:none;stroke-width:1.9610368"
       d="m 2716.1576,-4726.8439 c 22.7864,-2.4359 50.1347,-7.8733 68.9147,9.333 13.9393,15.5846 6.1664,37.6724 4.1805,55.9694 0,142.9371 0,285.8732 0,428.8098 -23.0149,-8.3067 -51.082,-5.0642 -70.849,10.1192 -9.4505,17.1734 21.2335,18.8352 32.4023,19.0828 52.2432,0 104.487,0 156.731,0 12.9703,-29.018 -21.8733,-34.7149 -41.3647,-28.9631 -21.5613,7.2418 -42.9637,-9.6251 -31.7305,-32.8903 0,-153.8199 0,-307.6403 0,-461.4608 23.0141,8.3044 51.0769,5.0618 70.8461,-10.1138 9.452,-17.1691 -21.2343,-18.8249 -32.3994,-19.0733 -52.2432,0 -104.4872,0 -156.731,0 0,9.729 0,19.4582 0,29.1871 z"
       id="text5841"
       inkscape:connector-curvature="0" />
    <path
       style="font-style:normal;font-weight:normal;font-size:10.58333302px;line-height:1.25;font-family:sans-serif;letter-spacing:0px;word-spacing:0px;fill:#000000;fill-opacity:1;stroke:none;stroke-width:1.9610368"
       d="m 2960.8856,-4717.4504 c 66.4662,0 132.9315,0 199.3976,0 0,171.3069 0,342.6139 0,513.9207 21.6774,12.8925 50.3488,-1.3754 46.3872,-29.2283 -2.1758,-63.1917 -0.8333,-126.5021 -1.1981,-189.7723 0,-98.3069 0,-196.6131 0,-294.9201 66.4654,0 132.9315,0 199.3968,0 13.3417,-25.8734 -11.2643,-47.1523 -35.2061,-40.3219 -22.0104,2.0352 -44.0736,4.4029 -66.0513,1.7413 -114.2423,0 -228.4838,0 -342.7261,0 0,12.8602 0,25.7204 0,38.5806 z"
       id="text5848"
       inkscape:connector-curvature="0" />
    <path
       inkscape:connector-curvature="0"
       id="path5904"
       d="m 3438.4898,-4612.9076 c -21.1319,4.2953 -43.8262,-6.4813 -64.0356,3.1508 -13.6419,19.1946 0.747,46.9207 -3.9993,69.9016 0.457,151.2304 -2.3259,302.4933 1.6117,453.6943 27.1141,-3.3707 12.8578,-38.2443 13.4185,-56.8999 1.9961,-41.9994 0.2394,-84.3638 0.961,-126.5098 0,-17.9435 0.073,-35.8875 -0.073,-53.8315 51.5353,8.986 106.6498,-12.6056 155.7947,11.8938 62.9985,73.7089 117.7679,155.0385 185.6853,224.1343 28.9934,1.9002 -7.6141,-26.4512 -15.2434,-35.546 -42.272,-52.792 -86.3694,-104.4625 -128.9004,-157.2301 -14.5629,-14.9093 -33.7686,-45.7499 -42.9029,-50.0172 -51.1146,8.3179 -102.998,1.3414 -154.4333,4.2536 0,-93.7506 0,-187.5009 0,-281.2512 67.5924,6.4206 140.365,-5.6617 202.4916,29.4538 33.6904,17.76 58.9957,53.077 60.5608,93.1284 3.3588,56.7762 -30.5425,112.737 -79.4241,136.7782 51.6573,-5.7557 87.8548,-56.6474 93.8088,-107.9106 6.1867,-45.3126 -5.2193,-95.3227 -35.5181,-128.9756 -56.1844,-38.6125 -126.6548,-25.4318 -189.8353,-28.2169 z"
       style="font-style:normal;font-weight:normal;font-size:10.58333302px;line-height:1.25;font-family:sans-serif;letter-spacing:0px;word-spacing:0px;fill:#000000;fill-opacity:1;stroke:none;stroke-width:1.9610368" />
    <path
       sodipodi:type="spiral"
       style="fill:none;fill-rule:evenodd;stroke:#000000;stroke-width:0.26458332"
       id="path5906"
       sodipodi:cx="3379.8904"
       sodipodi:cy="-992.84277"
       sodipodi:expansion="1"
       sodipodi:revolution="3"
       sodipodi:radius="47.648994"
       sodipodi:argument="-18.032423"
       sodipodi:t0="0"
       d="m 3379.8904,-992.84277 c 1.6348,1.74206 -1.5417,3.06322 -2.8954,2.71724 -3.6686,-0.9376 -4.1123,-5.68876 -2.5391,-8.50808 2.814,-5.04309 9.7179,-5.42519 14.1207,-2.36089 6.4614,4.497 6.7791,13.80247 2.1827,19.7334 -6.1262,7.905 -17.9067,8.15058 -25.346,2.00454 -9.3616,-7.73417 -9.5312,-22.02054 -1.8264,-30.95874 9.3316,-10.8253 26.1396,-10.917 36.5714,-1.6482 12.2935,10.923 12.3062,30.26204 1.47,42.18407 -12.5108,13.76446 -34.3866,13.69761 -47.7967,1.29184 -15.2374,-14.09624 -15.0905,-38.51281 -1.1136,-53.40941 15.6799,-16.7117 42.64,-16.4846 59.022,-0.9354 18.187,17.2625 17.8795,46.7682 0.7573,64.63465"
       transform="matrix(7.2528784,0,0,7.5741893,-20542.067,3164.1299)" />
    <path
       style="fill:#000000;fill-opacity:1;stroke:#000000;stroke-width:1.9610368px;stroke-linecap:butt;stroke-linejoin:miter;stroke-opacity:1"
       d="m 4386.7015,-4112.9273 c 0,-174.0941 0,-348.1882 0,-522.2825 98.2692,177.7488 196.5392,355.4975 294.8084,533.2463 0,-181.7975 0,-363.595 0,-545.3924 -16.8535,-1.3495 -33.7077,-2.6986 -50.5612,-4.0482 3.8766,122.81 7.754,245.6209 11.6307,368.4313 -86.5848,-148.4527 -173.1705,-296.9045 -259.7553,-445.3571 -20.6773,-1.3498 -41.3538,-2.6987 -62.0309,-4.0485 0,207.8336 0,415.6665 0,623.4999 21.9696,-1.3496 43.9385,-2.6992 65.9083,-4.0488 z"
       id="path5923"
       inkscape:connector-curvature="0" />
  </g>
</svg>
